<svg id="2ffdff7c-8fca-47d3-ad7b-63974d747011" data-name="Layer 1" xmlns="http://www.w3.org/2000/svg" viewBox="0 0 324.92 314.48"><defs><style>.\37 8069a57-868c-4759-9109-c8afcf18da62{fill:#fff;}.\32 dea11ae-e20f-4173-818a-c24fe60a561a,.\38 975f475-c54a-429f-aeb8-d12875a24fc7{fill:none;stroke:#fff;stroke-width:2px;}.\38 975f475-c54a-429f-aeb8-d12875a24fc7{stroke-miterlimit:10;}</style></defs><title>graph</title><circle class="78069a57-868c-4759-9109-c8afcf18da62" cx="71.9" cy="278.41" r="14.56"/><circle class="78069a57-868c-4759-9109-c8afcf18da62" cx="219.1" cy="186.07" r="12.35"/><circle class="78069a57-868c-4759-9109-c8afcf18da62" cx="94.26" cy="162.27" r="10"/><circle class="78069a57-868c-4759-9109-c8afcf18da62" cx="298.41" cy="77.52" r="15.29"/><circle class="78069a57-868c-4759-9109-c8afcf18da62" cx="278.16" cy="255.66" r="19.02"/><circle class="78069a57-868c-4759-9109-c8afcf18da62" cx="135.37" cy="215.85" r="22.06"/><circle class="78069a57-868c-4759-9109-c8afcf18da62" cx="138.21" cy="65.04" r="12.58"/><circle class="78069a57-868c-4759-9109-c8afcf18da62" cx="22.22" cy="193.01" r="12.58"/><circle class="78069a57-868c-4759-9109-c8afcf18da62" cx="205.27" cy="107.39" r="27.42"/><circle class="78069a57-868c-4759-9109-c8afcf18da62" cx="205.67" cy="302.45" r="10.33"/><circle class="78069a57-868c-4759-9109-c8afcf18da62" cx="120.06" cy="8.66" r="7.31"/><circle class="78069a57-868c-4759-9109-c8afcf18da62" cx="137.9" cy="307.18" r="7.31"/><circle class="78069a57-868c-4759-9109-c8afcf18da62" cx="46.71" cy="57.63" r="17.09"/><circle class="78069a57-868c-4759-9109-c8afcf18da62" cx="316.19" cy="165.15" r="8.73"/><circle class="78069a57-868c-4759-9109-c8afcf18da62" cx="211.6" cy="8.73" r="8.73"/><line class="2dea11ae-e20f-4173-818a-c24fe60a561a" x1="137.9" y1="307.18" x2="71.9" y2="278.41"/><line class="2dea11ae-e20f-4173-818a-c24fe60a561a" x1="22.22" y1="193.01" x2="71.9" y2="278.41"/><line class="2dea11ae-e20f-4173-818a-c24fe60a561a" x1="135.37" y1="215.85" x2="22.22" y2="193.01"/><line class="2dea11ae-e20f-4173-818a-c24fe60a561a" x1="135.37" y1="215.85" x2="71.9" y2="278.41"/><line class="2dea11ae-e20f-4173-818a-c24fe60a561a" x1="71.9" y1="278.41" x2="278.16" y2="255.66"/><line class="2dea11ae-e20f-4173-818a-c24fe60a561a" x1="137.9" y1="307.18" x2="205.67" y2="302.45"/><line class="2dea11ae-e20f-4173-818a-c24fe60a561a" x1="278.16" y1="255.66" x2="205.67" y2="302.45"/><line class="2dea11ae-e20f-4173-818a-c24fe60a561a" x1="298.41" y1="77.52" x2="316.19" y2="165.15"/><line class="2dea11ae-e20f-4173-818a-c24fe60a561a" x1="278.16" y1="255.66" x2="316.19" y2="165.15"/><line class="2dea11ae-e20f-4173-818a-c24fe60a561a" x1="219.1" y1="186.07" x2="137.9" y2="307.18"/><line class="2dea11ae-e20f-4173-818a-c24fe60a561a" x1="278.16" y1="255.66" x2="219.1" y2="186.07"/><line class="2dea11ae-e20f-4173-818a-c24fe60a561a" x1="205.67" y1="302.45" x2="219.1" y2="186.07"/><line class="2dea11ae-e20f-4173-818a-c24fe60a561a" x1="135.37" y1="215.85" x2="219.1" y2="186.07"/><line class="2dea11ae-e20f-4173-818a-c24fe60a561a" x1="137.9" y1="307.18" x2="135.37" y2="215.85"/><circle class="78069a57-868c-4759-9109-c8afcf18da62" cx="93.68" cy="110.21" r="12.58"/><line class="2dea11ae-e20f-4173-818a-c24fe60a561a" x1="22.22" y1="193.01" x2="94.26" y2="162.27"/><line class="2dea11ae-e20f-4173-818a-c24fe60a561a" x1="135.37" y1="215.85" x2="94.26" y2="162.27"/><line class="2dea11ae-e20f-4173-818a-c24fe60a561a" x1="93.68" y1="110.21" x2="22.22" y2="193.01"/><circle class="78069a57-868c-4759-9109-c8afcf18da62" cx="8.54" cy="121.16" r="8.54"/><line class="8975f475-c54a-429f-aeb8-d12875a24fc7" x1="94.26" y1="162.27" x2="8.54" y2="121.16"/><line class="8975f475-c54a-429f-aeb8-d12875a24fc7" x1="22.22" y1="193.01" x2="8.54" y2="121.16"/><line class="8975f475-c54a-429f-aeb8-d12875a24fc7" x1="46.71" y1="57.63" x2="8.54" y2="121.16"/><line class="8975f475-c54a-429f-aeb8-d12875a24fc7" x1="93.68" y1="110.21" x2="46.71" y2="57.63"/><line class="8975f475-c54a-429f-aeb8-d12875a24fc7" x1="120.06" y1="8.66" x2="46.71" y2="57.63"/><line class="8975f475-c54a-429f-aeb8-d12875a24fc7" x1="93.68" y1="110.21" x2="138.21" y2="65.04"/><line class="8975f475-c54a-429f-aeb8-d12875a24fc7" x1="120.06" y1="8.66" x2="138.21" y2="65.04"/><line class="8975f475-c54a-429f-aeb8-d12875a24fc7" x1="211.6" y1="8.73" x2="120.06" y2="8.66"/><line class="8975f475-c54a-429f-aeb8-d12875a24fc7" x1="298.41" y1="77.52" x2="211.6" y2="8.73"/><line class="8975f475-c54a-429f-aeb8-d12875a24fc7" x1="46.71" y1="57.63" x2="205.27" y2="107.39"/><line class="8975f475-c54a-429f-aeb8-d12875a24fc7" x1="138.21" y1="65.04" x2="46.71" y2="57.63"/><line class="8975f475-c54a-429f-aeb8-d12875a24fc7" x1="211.6" y1="8.73" x2="138.21" y2="65.04"/><line class="8975f475-c54a-429f-aeb8-d12875a24fc7" x1="205.27" y1="107.39" x2="211.6" y2="8.73"/><line class="8975f475-c54a-429f-aeb8-d12875a24fc7" x1="298.41" y1="77.52" x2="205.27" y2="107.39"/><line class="8975f475-c54a-429f-aeb8-d12875a24fc7" x1="316.19" y1="165.15" x2="205.27" y2="107.39"/><line class="8975f475-c54a-429f-aeb8-d12875a24fc7" x1="219.1" y1="186.07" x2="205.27" y2="107.39"/><line class="8975f475-c54a-429f-aeb8-d12875a24fc7" x1="316.19" y1="165.15" x2="219.1" y2="186.07"/><line class="8975f475-c54a-429f-aeb8-d12875a24fc7" x1="94.26" y1="162.27" x2="205.27" y2="107.39"/><line class="8975f475-c54a-429f-aeb8-d12875a24fc7" x1="135.37" y1="215.85" x2="205.27" y2="107.39"/><line class="8975f475-c54a-429f-aeb8-d12875a24fc7" x1="93.68" y1="110.21" x2="205.27" y2="107.39"/><line class="8975f475-c54a-429f-aeb8-d12875a24fc7" x1="71.9" y1="278.41" x2="93.68" y2="110.21"/><line class="8975f475-c54a-429f-aeb8-d12875a24fc7" x1="316.19" y1="165.15" x2="211.6" y2="8.73"/><line class="8975f475-c54a-429f-aeb8-d12875a24fc7" x1="50.24" y1="57.92" x2="211.6" y2="8.73"/><line class="8975f475-c54a-429f-aeb8-d12875a24fc7" x1="71.9" y1="278.41" x2="46.71" y2="57.63"/><line class="8975f475-c54a-429f-aeb8-d12875a24fc7" x1="298.41" y1="77.52" x2="219.1" y2="186.07"/></svg>